HIERARCHY
ROOT Pelvis
{
	OFFSET 0.000000 0.000000 0.000000
	CHANNELS 6 Xposition Yposition Zposition Xrotation Yrotation Zrotation
	JOINT LeftUpLeg_virtual
	{
		OFFSET 0.000000 0.000000 0.000000
		CHANNELS 3 Xrotation Yrotation Zrotation
		JOINT LeftUpLeg
		{
			OFFSET 18.735201 -5.666702 -4.541200
			CHANNELS 3 Xrotation Yrotation Zrotation
			JOINT LeftLeg
			{
				OFFSET -0.021200 -31.938179 0.493100
				CHANNELS 3 Xrotation Yrotation Zrotation
				JOINT LeftFoot
				{
					OFFSET 0.021200 -31.938179 -4.336299
					CHANNELS 3 Xrotation Yrotation Zrotation
					JOINT LeftToeBase
					{
						OFFSET 0.943001 -26.722000 15.023500
						CHANNELS 3 Xrotation Yrotation Zrotation
						End Site
						{
							OFFSET 0 0 0
						}
					}
				}
			}
		}
	}
	JOINT RightUpLeg_virtual
	{
		OFFSET 0.000000 0.000000 0.000000
		CHANNELS 3 Xrotation Yrotation Zrotation
		JOINT RightUpLeg
		{
			OFFSET -18.735201 -5.666702 -4.541200
			CHANNELS 3 Xrotation Yrotation Zrotation
			JOINT RightLeg
			{
				OFFSET 0.018946 -31.938133 0.493100
				CHANNELS 3 Xrotation Yrotation Zrotation
				JOINT RightFoot
				{
					OFFSET -0.018946 -31.938126 -4.336299
					CHANNELS 3 Xrotation Yrotation Zrotation
					JOINT RightToeBase
					{
						OFFSET -0.943001 -26.722004 15.023500
						CHANNELS 3 Xrotation Yrotation Zrotation
						End Site
						{
							OFFSET 0 0 0
						}
					}
				}
			}
		}
	}
	JOINT Hips_virtual
	{
		OFFSET 0.000000 0.000000 0.000000
		CHANNELS 3 Xrotation Yrotation Zrotation
		JOINT Hips
		{
			OFFSET -0.000000 -0.000000 -0.000000
			CHANNELS 3 Xrotation Yrotation Zrotation
			JOINT Spine
			{
				OFFSET 0.000000 10.199997 -0.299500
				CHANNELS 3 Xrotation Yrotation Zrotation
				JOINT Spine1
				{
					OFFSET 0.000000 11.900002 -1.516600
					CHANNELS 3 Xrotation Yrotation Zrotation
					JOINT Spine2
					{
						OFFSET 0.000000 13.600006 -2.842500
						CHANNELS 3 Xrotation Yrotation Zrotation
						JOINT Neck_virtual
						{
							OFFSET 0.000000 0.000000 0.000000
							CHANNELS 3 Xrotation Yrotation Zrotation
							JOINT Neck
							{
								OFFSET 0.000000 9.624100 -2.890100
								CHANNELS 3 Xrotation Yrotation Zrotation
								JOINT Head
								{
									OFFSET 0.000000 14.068802 -1.351900
									CHANNELS 3 Xrotation Yrotation Zrotation
									End Site
									{
										OFFSET 0 0 0
									}
								}
							}
						}
						JOINT LeftShoulder_virtual
						{
							OFFSET 0.000000 0.000000 0.000000
							CHANNELS 3 Xrotation Yrotation Zrotation
							JOINT LeftShoulder
							{
								OFFSET 15.263000 10.923401 -0.547700
								CHANNELS 3 Xrotation Yrotation Zrotation
								JOINT LeftArm
								{
									OFFSET 25.438599 -2.830597 -13.032500
									CHANNELS 3 Xrotation Yrotation Zrotation
									JOINT LeftForeArm
									{
										OFFSET 29.960503 0.000000 0.000000
										CHANNELS 3 Xrotation Yrotation Zrotation
										JOINT LeftHand
										{
											OFFSET 27.849251 0.000000 0.000000
											CHANNELS 3 Xrotation Yrotation Zrotation
											End Site
											{
												OFFSET 0 0 0
											}
										}
									}
								}
							}
						}
						JOINT RightShoulder_virtual
						{
							OFFSET 0.000000 0.000000 0.000000
							CHANNELS 3 Xrotation Yrotation Zrotation
							JOINT RightShoulder
							{
								OFFSET -15.263000 10.923401 -0.547700
								CHANNELS 3 Xrotation Yrotation Zrotation
								JOINT RightArm
								{
									OFFSET -25.438599 -2.830597 -13.032500
									CHANNELS 3 Xrotation Yrotation Zrotation
									JOINT RightForeArm
									{
										OFFSET -29.960503 0.000000 0.000000
										CHANNELS 3 Xrotation Yrotation Zrotation
										JOINT RightHand
										{
											OFFSET -27.849251 0.000000 0.000000
											CHANNELS 3 Xrotation Yrotation Zrotation
											End Site
											{
												OFFSET 0 0 0
											}
										}
									}
								}
							}
						}
					}
				}
			}
		}
	}
}
MOTION
Frames: 7
Frame Time: 0.03333333
-6.091227 80.892937 10.971840 0.000000 0.000000 0.000000 14.287738 -4.003462 -2.887256 -59.581741 0.363671 1.036091 76.056725 4.436007 0.371401 -35.427317 21.553415 -13.332927 0.000000 0.000000 0.000000 14.013285 -3.041432 -2.670723 -51.508430 -7.964713 -7.103412 73.885271 -8.965882 -3.649206 -39.642083 -3.162382 12.631881 0.000000 0.000000 0.000000 14.495968 -3.006840 -2.752542 -0.855466 0.035452 -0.042571 14.747423 2.128587 0.709381 1.810677 4.641978 -1.932851 0.000000 0.000000 0.000000 -2.301169 3.822211 -1.467830 3.161091 -1.396977 3.416808 0.000000 0.000000 0.000000 -1.378520 3.869728 -1.102884 5.451562 -18.186779 0.317994 -77.824664 -38.503187 -73.495137 -165.062122 -76.730420 -173.238227 0.000000 0.000000 0.000000 -2.675887 4.381449 -1.745855 4.218715 18.099504 12.883697 -67.032563 53.247738 54.087045 80.647486 60.855565 -93.104788 0.000000 0.000000 0.000000 
-6.085272 80.898949 10.983864 0.000000 0.000000 0.000000 14.299528 -4.010476 -2.888784 -59.578087 0.370567 1.040541 76.054641 4.435686 0.365695 -35.439635 21.565007 -13.321602 0.000000 0.000000 0.000000 14.025007 -3.048736 -2.671897 -51.503765 -7.969027 -7.097897 73.868646 -8.978069 -3.640633 -39.655645 -3.172672 12.607176 0.000000 0.000000 0.000000 14.506369 -3.015314 -2.755916 -0.856316 0.035333 -0.044284 14.739644 2.130088 0.703457 1.795246 4.640560 -1.939711 0.000000 0.000000 0.000000 -2.311712 3.821340 -1.472546 3.162566 -1.395642 3.416531 0.000000 0.000000 0.000000 -1.391717 3.868620 -1.108320 5.451223 -18.199871 0.296895 -77.853016 -38.537003 -73.538447 -165.160873 -76.614041 -173.341267 0.000000 0.000000 0.000000 -2.698638 4.380242 -1.754247 4.222969 18.098809 12.888827 -67.098399 53.279471 54.137886 80.911773 60.878309 -93.366418 0.000000 0.000000 0.000000 
-6.071692 80.906464 11.000145 0.000000 0.000000 0.000000 14.318269 -4.027749 -2.895706 -59.581844 0.383086 1.056529 76.066123 4.432173 0.357812 -35.461772 21.577454 -13.295494 0.000000 0.000000 0.000000 14.048375 -3.065717 -2.679288 -51.492393 -7.983022 -7.090221 73.823396 -8.985805 -3.634751 -39.665405 -3.187133 12.608725 0.000000 0.000000 0.000000 14.525620 -3.025286 -2.764578 -0.856872 0.035798 -0.045792 14.737083 2.143036 0.706636 1.766612 4.645904 -1.953047 0.000000 0.000000 0.000000 -2.337216 3.825767 -1.487155 3.164547 -1.395847 3.413470 0.000000 0.000000 0.000000 -1.422312 3.875206 -1.117902 5.449945 -18.191031 0.273116 -77.901565 -38.601866 -73.597187 -165.276986 -76.476440 -173.466601 0.000000 0.000000 0.000000 -2.737146 4.383975 -1.768321 4.224189 18.085663 12.918465 -67.086241 53.285065 54.102441 81.308676 60.913546 -93.757658 0.000000 0.000000 0.000000 
-6.054100 80.913536 11.018242 0.000000 0.000000 0.000000 14.340180 -4.051881 -2.905442 -59.592499 0.401441 1.083703 76.088417 4.421929 0.347432 -35.484161 21.585826 -13.268956 0.000000 0.000000 0.000000 14.077223 -3.089895 -2.689912 -51.485498 -7.996785 -7.083392 73.772047 -8.982386 -3.633189 -39.648767 -3.197991 12.642630 0.000000 0.000000 0.000000 14.551931 -3.035332 -2.774815 -0.856991 0.036050 -0.046176 14.742203 2.165533 0.713706 1.731561 4.656665 -1.967648 0.000000 0.000000 0.000000 -2.375060 3.834688 -1.505174 3.165576 -1.397657 3.408610 0.000000 0.000000 0.000000 -1.462357 3.887628 -1.126099 5.449265 -18.160879 0.253705 -77.958386 -38.676964 -73.662388 -165.352118 -76.397073 -173.551555 0.000000 0.000000 0.000000 -2.780537 4.392204 -1.782878 4.222869 18.061201 12.958369 -67.023888 53.276049 54.016985 81.638137 60.946065 -94.083766 0.000000 0.000000 0.000000 
-6.034726 80.917801 11.035072 0.000000 0.000000 0.000000 14.360848 -4.079113 -2.914386 -59.609684 0.428016 1.121246 76.117677 4.403840 0.332545 -35.495370 21.589205 -13.251533 0.000000 0.000000 0.000000 14.103696 -3.118000 -2.699481 -51.487831 -8.005980 -7.082735 73.733668 -8.972565 -3.633249 -39.613301 -3.203840 12.684004 0.000000 0.000000 0.000000 14.577201 -3.048862 -2.782463 -0.856927 0.036386 -0.045300 14.753651 2.192186 0.714397 1.695169 4.670623 -1.977946 0.000000 0.000000 0.000000 -2.418517 3.846010 -1.519509 3.164938 -1.400924 3.403966 0.000000 0.000000 0.000000 -1.503619 3.903346 -1.128808 5.448764 -18.115060 0.240557 -78.010698 -38.739405 -73.726455 -165.343143 -76.427788 -173.550394 0.000000 0.000000 0.000000 -2.821929 4.402381 -1.792859 4.221232 18.028377 12.989951 -66.957246 53.261877 53.936440 81.741696 60.961187 -94.192796 0.000000 0.000000 0.000000 
-6.017223 80.919548 11.048347 0.000000 0.000000 0.000000 14.376332 -4.103529 -2.919460 -59.626629 0.461719 1.161679 76.143318 4.379455 0.314902 -35.498559 21.588094 -13.244581 0.000000 0.000000 0.000000 14.122312 -3.142209 -2.705255 -51.495733 -8.009852 -7.089049 73.717371 -8.964461 -3.633347 -39.581800 -3.206680 12.706380 0.000000 0.000000 0.000000 14.596690 -3.069570 -2.784358 -0.857054 0.036825 -0.044151 14.771227 2.215555 0.703269 1.663876 4.683085 -1.980346 0.000000 0.000000 0.000000 -2.461263 3.856131 -1.523832 3.162019 -1.405220 3.402127 0.000000 0.000000 0.000000 -1.537782 3.916134 -1.125187 5.447221 -18.068936 0.231866 -78.051037 -38.761791 -73.775038 -165.267478 -76.551695 -173.481286 0.000000 0.000000 0.000000 -2.856043 4.411919 -1.794981 4.222300 17.992180 13.004515 -66.926223 53.255798 53.902613 81.568394 60.952861 -94.036091 0.000000 0.000000 0.000000 
-6.002760 80.920975 11.058147 0.000000 0.000000 0.000000 14.386897 -4.123045 -2.919766 -59.630891 0.495227 1.193706 76.148290 4.353363 0.300211 -35.505072 21.583142 -13.245103 0.000000 0.000000 0.000000 14.130752 -3.159373 -2.706077 -51.500965 -8.004453 -7.098071 73.716784 -8.961375 -3.634383 -39.558386 -3.206490 12.707052 0.000000 0.000000 0.000000 14.608374 -3.093868 -2.781625 -0.857482 0.036918 -0.043215 14.790471 2.230905 0.682238 1.639558 4.690385 -1.974946 0.000000 0.000000 0.000000 -2.501185 3.862831 -1.516163 3.157747 -1.409456 3.404920 0.000000 0.000000 0.000000 -1.560021 3.922626 -1.115728 5.443688 -18.035787 0.224361 -78.075155 -38.738627 -73.801171 -165.171787 -76.706808 -173.391374 0.000000 0.000000 0.000000 -2.879569 4.417701 -1.788751 4.227009 17.960257 13.004124 -66.945908 53.273474 53.933308 81.221338 60.926729 -93.712142 0.000000 0.000000 0.000000 
